<mxfile host="app.diagrams.net" modified="2023-06-14T10:12:09.312Z" agent="Mozilla/5.0 (Windows NT 10.0; Win64; x64) AppleWebKit/537.36 (KHTML, like Gecko) Chrome/112.0.0.0 Safari/537.36 OPR/98.0.0.0" etag="COkqWQxJAXMpVqqLMI0z" version="21.3.8" type="github">
  <diagram name="Page-1" id="5f0bae14-7c28-e335-631c-24af17079c00">
    <mxGraphModel dx="1393" dy="1616" grid="1" gridSize="10" guides="1" tooltips="1" connect="1" arrows="1" fold="1" page="1" pageScale="1" pageWidth="1100" pageHeight="850" background="none" math="0" shadow="0">
      <root>
        <mxCell id="0" />
        <mxCell id="1" parent="0" />
        <mxCell id="39150e848f15840c-1" value="WidgetTree" style="verticalAlign=top;align=left;spacingTop=8;spacingLeft=2;spacingRight=12;shape=cube;size=10;direction=south;fontStyle=4;html=1;rounded=0;shadow=0;comic=0;labelBackgroundColor=none;strokeWidth=1;fontFamily=Verdana;fontSize=12" parent="1" vertex="1">
          <mxGeometry x="320" y="70" width="160" height="120" as="geometry" />
        </mxCell>
        <mxCell id="39150e848f15840c-4" value="FirebaseAuth" style="html=1;rounded=0;shadow=0;comic=0;labelBackgroundColor=none;strokeWidth=1;fontFamily=Verdana;fontSize=12;align=center;fillColor=#e51400;fontColor=#ffffff;strokeColor=#B20000;" parent="1" vertex="1">
          <mxGeometry x="340" y="120" width="110" height="50" as="geometry" />
        </mxCell>
        <mxCell id="39150e848f15840c-18" style="edgeStyle=orthogonalEdgeStyle;rounded=0;html=1;labelBackgroundColor=none;startArrow=none;startFill=0;startSize=8;endArrow=none;endFill=0;endSize=16;fontFamily=Verdana;fontSize=12;exitX=0;exitY=0;exitDx=0;exitDy=80;exitPerimeter=0;entryX=0;entryY=0;entryDx=65;entryDy=160;entryPerimeter=0;" parent="1" source="yf_wb32e3iTUHdhz3gdt-1" target="39150e848f15840c-1" edge="1">
          <mxGeometry relative="1" as="geometry">
            <Array as="points">
              <mxPoint x="280" y="140" />
              <mxPoint x="320" y="140" />
            </Array>
          </mxGeometry>
        </mxCell>
        <mxCell id="yf_wb32e3iTUHdhz3gdt-1" value="HomePages" style="verticalAlign=top;align=left;spacingTop=8;spacingLeft=2;spacingRight=12;shape=cube;size=10;direction=south;fontStyle=4;html=1;rounded=0;shadow=0;comic=0;labelBackgroundColor=none;strokeWidth=1;fontFamily=Verdana;fontSize=12" vertex="1" parent="1">
          <mxGeometry x="190" y="220" width="170" height="110" as="geometry" />
        </mxCell>
        <mxCell id="yf_wb32e3iTUHdhz3gdt-2" value="FirebaseAuth" style="html=1;rounded=0;shadow=0;comic=0;labelBackgroundColor=none;strokeWidth=1;fontFamily=Verdana;fontSize=12;align=center;fillColor=#e51400;fontColor=#ffffff;strokeColor=#B20000;" vertex="1" parent="1">
          <mxGeometry x="220" y="260" width="110" height="50" as="geometry" />
        </mxCell>
        <mxCell id="yf_wb32e3iTUHdhz3gdt-3" value="Login/RegisterPage" style="verticalAlign=top;align=left;spacingTop=8;spacingLeft=2;spacingRight=12;shape=cube;size=10;direction=south;fontStyle=4;html=1;rounded=0;shadow=0;comic=0;labelBackgroundColor=none;strokeWidth=1;fontFamily=Verdana;fontSize=12" vertex="1" parent="1">
          <mxGeometry x="510" y="80" width="170" height="110" as="geometry" />
        </mxCell>
        <mxCell id="yf_wb32e3iTUHdhz3gdt-4" value="FirebaseAuth" style="html=1;rounded=0;shadow=0;comic=0;labelBackgroundColor=none;strokeWidth=1;fontFamily=Verdana;fontSize=12;align=center;fillColor=#e51400;fontColor=#ffffff;strokeColor=#B20000;" vertex="1" parent="1">
          <mxGeometry x="540" y="120" width="110" height="50" as="geometry" />
        </mxCell>
        <mxCell id="yf_wb32e3iTUHdhz3gdt-6" value="Restriktionspage" style="verticalAlign=top;align=left;spacingTop=8;spacingLeft=2;spacingRight=12;shape=cube;size=10;direction=south;fontStyle=4;html=1;rounded=0;shadow=0;comic=0;labelBackgroundColor=none;strokeWidth=1;fontFamily=Verdana;fontSize=12" vertex="1" parent="1">
          <mxGeometry x="620" y="370" width="170" height="240" as="geometry" />
        </mxCell>
        <mxCell id="yf_wb32e3iTUHdhz3gdt-7" value="FirebaseAuth" style="html=1;rounded=0;shadow=0;comic=0;labelBackgroundColor=none;strokeWidth=1;fontFamily=Verdana;fontSize=12;align=center;fillColor=#e51400;fontColor=#ffffff;strokeColor=#B20000;" vertex="1" parent="1">
          <mxGeometry x="650" y="410" width="110" height="50" as="geometry" />
        </mxCell>
        <mxCell id="yf_wb32e3iTUHdhz3gdt-8" value="Firestore Stream" style="html=1;rounded=0;shadow=0;comic=0;labelBackgroundColor=none;strokeWidth=1;fontFamily=Verdana;fontSize=12;align=center;fillColor=#6d8764;fontColor=#ffffff;strokeColor=#3A5431;" vertex="1" parent="1">
          <mxGeometry x="650" y="475" width="110" height="50" as="geometry" />
        </mxCell>
        <mxCell id="yf_wb32e3iTUHdhz3gdt-9" value="Firestore CRUD" style="html=1;rounded=0;shadow=0;comic=0;labelBackgroundColor=none;strokeWidth=1;fontFamily=Verdana;fontSize=12;align=center;fillColor=#6d8764;fontColor=#ffffff;strokeColor=#3A5431;" vertex="1" parent="1">
          <mxGeometry x="650" y="540" width="110" height="50" as="geometry" />
        </mxCell>
        <mxCell id="yf_wb32e3iTUHdhz3gdt-11" value="Tagebuchpage" style="verticalAlign=top;align=left;spacingTop=8;spacingLeft=2;spacingRight=12;shape=cube;size=10;direction=south;fontStyle=4;html=1;rounded=0;shadow=0;comic=0;labelBackgroundColor=none;strokeWidth=1;fontFamily=Verdana;fontSize=12" vertex="1" parent="1">
          <mxGeometry x="210" y="370" width="170" height="240" as="geometry" />
        </mxCell>
        <mxCell id="yf_wb32e3iTUHdhz3gdt-12" value="FirebaseAuth" style="html=1;rounded=0;shadow=0;comic=0;labelBackgroundColor=none;strokeWidth=1;fontFamily=Verdana;fontSize=12;align=center;fillColor=#e51400;fontColor=#ffffff;strokeColor=#B20000;" vertex="1" parent="1">
          <mxGeometry x="240" y="410" width="110" height="50" as="geometry" />
        </mxCell>
        <mxCell id="yf_wb32e3iTUHdhz3gdt-13" value="Firestore Stream" style="html=1;rounded=0;shadow=0;comic=0;labelBackgroundColor=none;strokeWidth=1;fontFamily=Verdana;fontSize=12;align=center;fillColor=#6d8764;fontColor=#ffffff;strokeColor=#3A5431;" vertex="1" parent="1">
          <mxGeometry x="240" y="475" width="110" height="50" as="geometry" />
        </mxCell>
        <mxCell id="yf_wb32e3iTUHdhz3gdt-14" value="Firestore CRUD" style="html=1;rounded=0;shadow=0;comic=0;labelBackgroundColor=none;strokeWidth=1;fontFamily=Verdana;fontSize=12;align=center;fillColor=#6d8764;fontColor=#ffffff;strokeColor=#3A5431;" vertex="1" parent="1">
          <mxGeometry x="240" y="540" width="110" height="50" as="geometry" />
        </mxCell>
        <mxCell id="yf_wb32e3iTUHdhz3gdt-15" value="Profilpage" style="verticalAlign=top;align=left;spacingTop=8;spacingLeft=2;spacingRight=12;shape=cube;size=10;direction=south;fontStyle=4;html=1;rounded=0;shadow=0;comic=0;labelBackgroundColor=none;strokeWidth=1;fontFamily=Verdana;fontSize=12" vertex="1" parent="1">
          <mxGeometry x="420" y="370" width="170" height="240" as="geometry" />
        </mxCell>
        <mxCell id="yf_wb32e3iTUHdhz3gdt-16" value="FirebaseAuth" style="html=1;rounded=0;shadow=0;comic=0;labelBackgroundColor=none;strokeWidth=1;fontFamily=Verdana;fontSize=12;align=center;fillColor=#e51400;fontColor=#ffffff;strokeColor=#B20000;" vertex="1" parent="1">
          <mxGeometry x="450" y="410" width="110" height="50" as="geometry" />
        </mxCell>
        <mxCell id="yf_wb32e3iTUHdhz3gdt-17" value="Firestore Stream" style="html=1;rounded=0;shadow=0;comic=0;labelBackgroundColor=none;strokeWidth=1;fontFamily=Verdana;fontSize=12;align=center;fillColor=#6d8764;fontColor=#ffffff;strokeColor=#3A5431;" vertex="1" parent="1">
          <mxGeometry x="450" y="475" width="110" height="50" as="geometry" />
        </mxCell>
        <mxCell id="yf_wb32e3iTUHdhz3gdt-18" value="Firestore CRUD" style="html=1;rounded=0;shadow=0;comic=0;labelBackgroundColor=none;strokeWidth=1;fontFamily=Verdana;fontSize=12;align=center;fillColor=#6d8764;fontColor=#ffffff;strokeColor=#3A5431;" vertex="1" parent="1">
          <mxGeometry x="450" y="540" width="110" height="50" as="geometry" />
        </mxCell>
        <mxCell id="yf_wb32e3iTUHdhz3gdt-19" value="HabitsPages" style="verticalAlign=top;align=left;spacingTop=8;spacingLeft=2;spacingRight=12;shape=cube;size=10;direction=south;fontStyle=4;html=1;rounded=0;shadow=0;comic=0;labelBackgroundColor=none;strokeWidth=1;fontFamily=Verdana;fontSize=12" vertex="1" parent="1">
          <mxGeometry x="10" y="370" width="170" height="240" as="geometry" />
        </mxCell>
        <mxCell id="yf_wb32e3iTUHdhz3gdt-20" value="FirebaseAuth" style="html=1;rounded=0;shadow=0;comic=0;labelBackgroundColor=none;strokeWidth=1;fontFamily=Verdana;fontSize=12;align=center;fillColor=#e51400;fontColor=#ffffff;strokeColor=#B20000;" vertex="1" parent="1">
          <mxGeometry x="40" y="410" width="110" height="50" as="geometry" />
        </mxCell>
        <mxCell id="yf_wb32e3iTUHdhz3gdt-21" value="Firestore Stream" style="html=1;rounded=0;shadow=0;comic=0;labelBackgroundColor=none;strokeWidth=1;fontFamily=Verdana;fontSize=12;align=center;fillColor=#6d8764;fontColor=#ffffff;strokeColor=#3A5431;" vertex="1" parent="1">
          <mxGeometry x="40" y="475" width="110" height="50" as="geometry" />
        </mxCell>
        <mxCell id="yf_wb32e3iTUHdhz3gdt-22" value="Firestore CRUD" style="html=1;rounded=0;shadow=0;comic=0;labelBackgroundColor=none;strokeWidth=1;fontFamily=Verdana;fontSize=12;align=center;fillColor=#6d8764;fontColor=#ffffff;strokeColor=#3A5431;" vertex="1" parent="1">
          <mxGeometry x="40" y="540" width="110" height="50" as="geometry" />
        </mxCell>
        <mxCell id="yf_wb32e3iTUHdhz3gdt-23" value="" style="ellipse;html=1;shape=startState;fillColor=#000000;strokeColor=#ff0000;" vertex="1" parent="1">
          <mxGeometry x="385" y="-100" width="30" height="30" as="geometry" />
        </mxCell>
        <mxCell id="yf_wb32e3iTUHdhz3gdt-24" value="" style="edgeStyle=orthogonalEdgeStyle;html=1;verticalAlign=bottom;endArrow=open;endSize=8;strokeColor=#ff0000;rounded=0;" edge="1" parent="1" source="yf_wb32e3iTUHdhz3gdt-23">
          <mxGeometry relative="1" as="geometry">
            <mxPoint x="400" y="-30" as="targetPoint" />
          </mxGeometry>
        </mxCell>
        <mxCell id="yf_wb32e3iTUHdhz3gdt-25" value="Firebase" style="verticalAlign=top;align=left;spacingTop=8;spacingLeft=2;spacingRight=12;shape=cube;size=10;direction=south;fontStyle=4;html=1;rounded=0;shadow=0;comic=0;labelBackgroundColor=none;strokeWidth=1;fontFamily=Verdana;fontSize=12;fillColor=#fa6800;strokeColor=#C73500;fontColor=#000000;" vertex="1" parent="1">
          <mxGeometry x="30" y="60" width="170" height="130" as="geometry" />
        </mxCell>
        <mxCell id="yf_wb32e3iTUHdhz3gdt-26" value="DB" style="html=1;rounded=0;shadow=0;comic=0;labelBackgroundColor=none;strokeWidth=1;fontFamily=Verdana;fontSize=12;align=center;fillColor=#6d8764;strokeColor=#3A5431;fontColor=#ffffff;" vertex="1" parent="1">
          <mxGeometry x="55" y="150" width="115" height="30" as="geometry" />
        </mxCell>
        <mxCell id="yf_wb32e3iTUHdhz3gdt-28" value="Authentication" style="html=1;rounded=0;shadow=0;comic=0;labelBackgroundColor=none;strokeWidth=1;fontFamily=Verdana;fontSize=12;align=center;fillColor=#e51400;strokeColor=#B20000;fontColor=#ffffff;" vertex="1" parent="1">
          <mxGeometry x="55" y="100" width="115" height="40" as="geometry" />
        </mxCell>
        <mxCell id="yf_wb32e3iTUHdhz3gdt-29" style="edgeStyle=orthogonalEdgeStyle;rounded=0;html=1;labelBackgroundColor=none;startArrow=none;startFill=0;startSize=8;endArrow=none;endFill=0;endSize=16;fontFamily=Verdana;fontSize=12;exitX=0;exitY=0;exitDx=0;exitDy=80;exitPerimeter=0;entryX=0;entryY=0;entryDx=60;entryDy=170;entryPerimeter=0;" edge="1" parent="1" source="yf_wb32e3iTUHdhz3gdt-19" target="yf_wb32e3iTUHdhz3gdt-1">
          <mxGeometry relative="1" as="geometry">
            <Array as="points">
              <mxPoint x="100" y="280" />
            </Array>
            <mxPoint x="90" y="370" as="sourcePoint" />
            <mxPoint x="130" y="285" as="targetPoint" />
          </mxGeometry>
        </mxCell>
        <mxCell id="yf_wb32e3iTUHdhz3gdt-32" style="edgeStyle=orthogonalEdgeStyle;rounded=0;html=1;labelBackgroundColor=none;startArrow=none;startFill=0;startSize=8;endArrow=none;endFill=0;endSize=16;fontFamily=Verdana;fontSize=12;entryX=0;entryY=0;entryDx=0;entryDy=80;entryPerimeter=0;exitX=0;exitY=0;exitDx=110;exitDy=90;exitPerimeter=0;" edge="1" parent="1">
          <mxGeometry relative="1" as="geometry">
            <Array as="points">
              <mxPoint x="294.76" y="340" />
              <mxPoint x="294.76" y="340" />
            </Array>
            <mxPoint x="294.76" y="330" as="sourcePoint" />
            <mxPoint x="294.76" y="370" as="targetPoint" />
          </mxGeometry>
        </mxCell>
        <mxCell id="yf_wb32e3iTUHdhz3gdt-33" style="edgeStyle=orthogonalEdgeStyle;rounded=0;html=1;labelBackgroundColor=none;startArrow=none;startFill=0;startSize=8;endArrow=none;endFill=0;endSize=16;fontFamily=Verdana;fontSize=12;exitX=0;exitY=0;exitDx=0;exitDy=80;exitPerimeter=0;entryX=0;entryY=0;entryDx=50;entryDy=0;entryPerimeter=0;" edge="1" parent="1" source="yf_wb32e3iTUHdhz3gdt-6" target="yf_wb32e3iTUHdhz3gdt-1">
          <mxGeometry relative="1" as="geometry">
            <Array as="points">
              <mxPoint x="705" y="370" />
              <mxPoint x="705" y="290" />
              <mxPoint x="360" y="290" />
            </Array>
            <mxPoint x="110" y="380" as="sourcePoint" />
            <mxPoint x="200" y="290" as="targetPoint" />
          </mxGeometry>
        </mxCell>
        <mxCell id="yf_wb32e3iTUHdhz3gdt-34" style="edgeStyle=orthogonalEdgeStyle;rounded=0;html=1;labelBackgroundColor=none;startArrow=none;startFill=0;startSize=8;endArrow=none;endFill=0;endSize=16;fontFamily=Verdana;fontSize=12;exitX=0;exitY=0;exitDx=0;exitDy=80;exitPerimeter=0;entryX=0.662;entryY=-0.014;entryDx=0;entryDy=0;entryPerimeter=0;" edge="1" parent="1" source="yf_wb32e3iTUHdhz3gdt-15" target="yf_wb32e3iTUHdhz3gdt-1">
          <mxGeometry relative="1" as="geometry">
            <Array as="points">
              <mxPoint x="510" y="290" />
              <mxPoint x="362" y="290" />
            </Array>
            <mxPoint x="110" y="380" as="sourcePoint" />
            <mxPoint x="200" y="290" as="targetPoint" />
          </mxGeometry>
        </mxCell>
        <mxCell id="yf_wb32e3iTUHdhz3gdt-35" value="Onboardingpage" style="verticalAlign=top;align=left;spacingTop=8;spacingLeft=2;spacingRight=12;shape=cube;size=10;direction=south;fontStyle=4;html=1;rounded=0;shadow=0;comic=0;labelBackgroundColor=none;strokeWidth=1;fontFamily=Verdana;fontSize=12" vertex="1" parent="1">
          <mxGeometry x="340" y="-30" width="130" height="60" as="geometry" />
        </mxCell>
        <mxCell id="yf_wb32e3iTUHdhz3gdt-38" style="edgeStyle=orthogonalEdgeStyle;rounded=0;html=1;labelBackgroundColor=none;startArrow=none;startFill=0;startSize=8;endArrow=none;endFill=0;endSize=16;fontFamily=Verdana;fontSize=12;entryX=0;entryY=0;entryDx=0;entryDy=80;entryPerimeter=0;exitX=0;exitY=0;exitDx=110;exitDy=90;exitPerimeter=0;" edge="1" parent="1">
          <mxGeometry relative="1" as="geometry">
            <Array as="points">
              <mxPoint x="399.8" y="40" />
              <mxPoint x="399.8" y="40" />
            </Array>
            <mxPoint x="399.8" y="30" as="sourcePoint" />
            <mxPoint x="399.8" y="70" as="targetPoint" />
          </mxGeometry>
        </mxCell>
        <mxCell id="yf_wb32e3iTUHdhz3gdt-39" style="edgeStyle=orthogonalEdgeStyle;rounded=0;html=1;labelBackgroundColor=none;startArrow=none;startFill=0;startSize=8;endArrow=none;endFill=0;endSize=16;fontFamily=Verdana;fontSize=12;entryX=0;entryY=0;entryDx=60;entryDy=170;entryPerimeter=0;exitX=0.597;exitY=-0.006;exitDx=0;exitDy=0;exitPerimeter=0;" edge="1" parent="1" source="39150e848f15840c-1" target="yf_wb32e3iTUHdhz3gdt-3">
          <mxGeometry relative="1" as="geometry">
            <Array as="points">
              <mxPoint x="481" y="140" />
            </Array>
            <mxPoint x="490" y="210" as="sourcePoint" />
            <mxPoint x="490" y="250" as="targetPoint" />
          </mxGeometry>
        </mxCell>
        <mxCell id="yf_wb32e3iTUHdhz3gdt-40" value="PersonalInformationPage" style="verticalAlign=top;align=left;spacingTop=8;spacingLeft=2;spacingRight=12;shape=cube;size=10;direction=south;fontStyle=4;html=1;rounded=0;shadow=0;comic=0;labelBackgroundColor=none;strokeWidth=1;fontFamily=Verdana;fontSize=12" vertex="1" parent="1">
          <mxGeometry x="710" y="80" width="170" height="180" as="geometry" />
        </mxCell>
        <mxCell id="yf_wb32e3iTUHdhz3gdt-41" value="FirebaseAuth" style="html=1;rounded=0;shadow=0;comic=0;labelBackgroundColor=none;strokeWidth=1;fontFamily=Verdana;fontSize=12;align=center;fillColor=#e51400;fontColor=#ffffff;strokeColor=#B20000;" vertex="1" parent="1">
          <mxGeometry x="740" y="120" width="110" height="50" as="geometry" />
        </mxCell>
        <mxCell id="yf_wb32e3iTUHdhz3gdt-43" value="Firestore CRUD" style="html=1;rounded=0;shadow=0;comic=0;labelBackgroundColor=none;strokeWidth=1;fontFamily=Verdana;fontSize=12;align=center;fillColor=#6d8764;fontColor=#ffffff;strokeColor=#3A5431;" vertex="1" parent="1">
          <mxGeometry x="740" y="190" width="110" height="50" as="geometry" />
        </mxCell>
        <mxCell id="yf_wb32e3iTUHdhz3gdt-44" style="edgeStyle=orthogonalEdgeStyle;rounded=0;html=1;labelBackgroundColor=none;startArrow=none;startFill=0;startSize=8;endArrow=none;endFill=0;endSize=16;fontFamily=Verdana;fontSize=12;entryX=0.922;entryY=1.009;entryDx=0;entryDy=0;entryPerimeter=0;exitX=0.232;exitY=-0.01;exitDx=0;exitDy=0;exitPerimeter=0;" edge="1" parent="1" source="yf_wb32e3iTUHdhz3gdt-1" target="yf_wb32e3iTUHdhz3gdt-40">
          <mxGeometry relative="1" as="geometry">
            <Array as="points">
              <mxPoint x="450" y="246" />
            </Array>
            <mxPoint x="440" y="220" as="sourcePoint" />
            <mxPoint x="479" y="220" as="targetPoint" />
          </mxGeometry>
        </mxCell>
        <mxCell id="yf_wb32e3iTUHdhz3gdt-45" style="edgeStyle=orthogonalEdgeStyle;rounded=0;html=1;labelBackgroundColor=none;startArrow=none;startFill=0;startSize=8;endArrow=none;endFill=0;endSize=16;fontFamily=Verdana;fontSize=12;exitX=0.546;exitY=-0.001;exitDx=0;exitDy=0;exitPerimeter=0;" edge="1" parent="1" source="yf_wb32e3iTUHdhz3gdt-3">
          <mxGeometry relative="1" as="geometry">
            <Array as="points">
              <mxPoint x="700" y="140" />
              <mxPoint x="700" y="140" />
            </Array>
            <mxPoint x="690" y="170" as="sourcePoint" />
            <mxPoint x="710" y="140" as="targetPoint" />
          </mxGeometry>
        </mxCell>
      </root>
    </mxGraphModel>
  </diagram>
</mxfile>
